# xmcd
#
# Track frame offsets:
#	150
#	10189
#	22581
#	33763
#	49722
#	64232
#	75486
#	90821
#	103745
#	115763
#	131816
#	144772
#	158042
#	171721
#
# Disc length: 2456 seconds
# Revision: 0
# Processed by: cddbd v1.5.2PL0 Copyright (c) Steve Scherf et al.
# Submitted via: dBpowerAMP V12.0
#
DISCID=a009960e
DTITLE=Ricky Wasson - From the Heart and Soul
DYEAR=2008
DGENRE=Bluegrass
TTITLE0=Whole Lot More Living
TTITLE1=Dark Hollow
TTITLE2=Losin' in Las Vegas
TTITLE3=Touched By the Master's Hand
TTITLE4=Don't Wait Up
TTITLE5=Billy G. Salvation
TTITLE6=Farther Along
TTITLE7=Roll On Buddy
TTITLE8=I Can Tell You The Time
TTITLE9=Another Soldier Down
TTITLE10=I'll Go Steppin' Too
TTITLE11=Get in Line Brother
TTITLE12=A Place That Has No Yesterday
TTITLE13=Shoe Goes on the Other Foot Tonight
EXTD=
EXTT0=
EXTT1=
EXTT2=
EXTT3=
EXTT4=
EXTT5=
EXTT6=
EXTT7=
EXTT8=
EXTT9=
EXTT10=
EXTT11=
EXTT12=
EXTT13=
PLAYORDER=
